<?xml version="1.0" standalone="no"?>
<!DOCTYPE svg PUBLIC "-//W3C//DTD SVG 20010904//EN"
 "http://www.w3.org/TR/2001/REC-SVG-20010904/DTD/svg10.dtd">
<svg version="1.0" xmlns="http://www.w3.org/2000/svg"
 width="256.000000pt" height="256.000000pt" viewBox="0 0 256.000000 256.000000"
 preserveAspectRatio="xMidYMid meet">
<metadata>
Created by potrace 1.14, written by Peter Selinger 2001-2017
</metadata>
<g transform="translate(0.000000,256.000000) scale(0.100000,-0.100000)"
fill="#000000" stroke="none">
<path d="M1406 1715 c-23 -23 -30 -100 -16 -160 14 -58 6 -149 -12 -143 -6 2
-13 13 -14 23 -5 33 -24 61 -55 79 -16 9 -29 14 -29 9 -5 -75 -10 -113 -19
-136 -16 -40 -16 -129 -1 -158 52 -101 207 -130 330 -63 100 55 114 141 46
279 -19 38 -37 83 -41 98 -3 16 -11 27 -17 25 -19 -7 -27 -55 -17 -91 13 -43
13 -107 -1 -121 -17 -17 -31 12 -29 64 2 85 -1 96 -41 155 -22 34 -42 78 -46
103 -7 49 -16 58 -38 37z m-89 -340 c-4 -34 -17 -44 -17 -13 0 22 7 38 17 38
2 0 2 -11 0 -25z m-7 -87 c0 -17 -3 -28 -7 -24 -9 9 -13 38 -7 48 10 15 14 8
14 -24z"/>
<path d="M1583 1635 c-8 -22 6 -33 17 -15 13 20 12 30 0 30 -6 0 -13 -7 -17
-15z"/>
<path d="M829 1601 c-4 -46 -4 -348 -1 -358 3 -8 22 -13 51 -13 l46 0 0 190
c1 105 -2 191 -5 191 -3 1 -24 3 -47 4 -33 2 -43 -2 -44 -14z"/>
<path d="M1010 1423 l0 -193 50 0 50 0 0 193 0 194 -50 0 -50 0 0 -194z"/>
<path d="M42 1585 c-3 -5 -6 -88 -7 -182 l0 -173 53 0 52 0 0 70 0 70 70 0 70
0 0 -70 0 -70 50 0 c33 0 50 4 51 13 1 15 1 305 0 332 -1 18 -7 20 -48 20
l-48 -1 -3 -67 c-2 -50 -7 -67 -17 -68 -8 0 -31 -1 -50 -1 -80 0 -75 -4 -75
67 0 36 -3 65 -7 66 -44 5 -86 3 -91 -6z"/>
<path d="M1247 1593 c-4 -6 0 -19 8 -29 11 -15 14 -16 15 -4 0 21 -16 44 -23
33z"/>
<path d="M1797 1585 c-2 -9 -1 -326 2 -347 1 -5 66 -8 146 -8 l145 0 0 40 0
40 -96 0 -95 0 3 33 3 32 75 0 75 0 3 38 c4 41 11 39 -110 39 -47 0 -48 0 -48
32 l0 31 83 -1 c45 0 87 1 93 3 7 2 8 18 5 41 l-6 37 -138 0 c-82 0 -138 -4
-140 -10z"/>
<path d="M2173 1591 c-4 -3 -8 -85 -8 -181 l0 -175 53 -3 52 -3 0 97 0 96 78
-95 c75 -94 78 -96 120 -97 27 0 42 5 43 13 6 98 2 347 -6 348 -14 2 -68 2
-82 0 -9 -1 -13 -27 -13 -93 l-1 -93 -22 26 c-12 14 -37 44 -55 66 -70 87 -78
94 -114 97 -20 2 -40 1 -45 -3z"/>
<path d="M570 1512 c-74 -23 -106 -60 -114 -128 -5 -47 17 -99 55 -127 54 -39
167 -40 210 -1 l21 19 -27 23 c-17 15 -34 21 -44 16 -35 -15 -64 -16 -87 -4
-49 27 -28 37 66 36 50 -1 96 1 102 5 15 9 4 70 -18 104 -29 44 -113 74 -164
57z m65 -74 c35 -16 31 -35 -7 -40 -68 -10 -92 12 -43 40 25 14 20 14 50 0z"/>
<path d="M243 982 c-33 -3 -33 -4 -33 -58 l0 -54 45 0 c25 0 45 5 45 10 0 6
-14 10 -31 10 -20 0 -29 4 -26 13 2 6 12 12 22 12 10 0 20 6 23 13 2 7 0 12
-5 11 -21 -4 -43 2 -43 11 0 6 14 10 30 10 17 0 30 4 30 9 0 12 -20 17 -57 13z"/>
<path d="M354 975 c-5 -11 -8 -29 -8 -40 1 -11 2 -30 3 -42 1 -20 7 -23 41
-23 22 0 40 5 40 10 0 6 -13 10 -29 10 -26 0 -29 3 -26 26 1 15 -1 38 -4 53
-7 25 -8 25 -17 6z"/>
<path d="M692 974 c-31 -22 -27 -41 12 -55 38 -14 38 -32 1 -27 -13 2 -24 -1
-25 -7 0 -5 17 -10 38 -10 31 0 38 4 40 23 3 18 -3 26 -27 35 -40 15 -39 27 2
27 30 1 31 1 13 15 -25 19 -26 19 -54 -1z"/>
<path d="M1078 982 l-37 -3 0 -55 0 -54 45 0 c24 0 44 5 44 10 0 6 -13 10 -30
10 -20 0 -30 5 -30 15 0 9 8 14 21 12 12 -1 24 4 26 11 3 7 -1 13 -8 11 -25
-3 -39 1 -39 11 0 6 14 10 30 10 17 0 30 4 30 9 0 14 -11 17 -52 13z"/>
<path d="M1370 978 c-64 -24 -49 -108 19 -108 31 0 48 15 48 43 0 23 -18 22
-24 -3 -7 -25 -39 -26 -52 -1 -14 26 8 53 39 49 14 -2 26 1 28 7 5 15 -31 23
-58 13z"/>
<path d="M1725 981 c-44 -9 -48 -48 -6 -62 41 -14 41 -33 0 -25 -22 4 -29 2
-27 -7 6 -17 56 -21 74 -6 24 20 16 39 -23 57 l-38 17 33 3 c17 2 32 7 32 12
0 14 -13 17 -45 11z"/>
<path d="M53 925 c1 -37 6 -55 14 -55 7 0 13 10 13 23 0 18 6 23 25 23 19 0
25 -5 25 -23 0 -13 6 -23 13 -23 8 0 13 18 14 55 1 42 -2 55 -13 55 -8 0 -14
-9 -14 -19 0 -20 -17 -31 -37 -24 -7 3 -13 13 -13 24 0 10 -6 19 -14 19 -11 0
-14 -13 -13 -55z"/>
<path d="M471 925 l0 -55 44 0 c25 0 45 5 45 10 0 6 -13 10 -30 10 -29 0 -30
2 -30 45 0 32 -4 45 -14 45 -10 0 -14 -15 -15 -55z"/>
<path d="M598 963 c-6 -33 4 -94 15 -90 16 5 15 99 0 104 -6 2 -13 -4 -15 -14z"/>
<path d="M810 925 c0 -43 3 -55 15 -55 9 0 15 6 14 13 -4 28 2 37 24 33 13 -2
23 -11 25 -24 4 -26 22 -29 23 -4 4 68 3 86 -9 90 -7 2 -12 -5 -12 -17 0 -16
-6 -21 -25 -21 -18 0 -25 5 -25 20 0 11 -7 20 -15 20 -12 0 -15 -13 -15 -55z"/>
<path d="M1180 924 c0 -40 3 -55 13 -51 6 2 11 16 11 30 -2 35 6 34 31 -3 24
-36 42 -39 47 -7 5 39 -4 87 -17 87 -9 0 -12 -10 -9 -32 l4 -33 -28 33 c-41
46 -52 42 -52 -24z"/>
<path d="M1490 926 l0 -56 40 0 c45 0 55 17 13 22 -25 3 -27 7 -28 42 0 22 -5
41 -13 44 -8 2 -12 -12 -12 -52z"/>
<path d="M1612 925 c1 -39 5 -55 15 -55 9 0 13 16 13 55 0 41 -4 55 -14 55
-10 0 -14 -14 -14 -55z"/>
<path d="M1825 925 c0 -37 4 -55 13 -55 6 0 12 9 12 19 0 20 25 35 41 25 5 -3
9 -14 9 -25 0 -10 7 -19 15 -19 12 0 15 13 15 55 0 58 -14 72 -30 31 -7 -18
-14 -23 -30 -19 -11 3 -19 12 -18 21 2 9 -4 18 -12 19 -12 3 -15 -8 -15 -52z"/>
</g>
</svg>
